# xmcd
#
# Track frame offsets: 
#        150
#        23601
#        44156
#        61962
#        79427
#        99140
#        115891
#        143318
#        167832
#        187577
#
# Disc length: 2730 seconds
#
# Revision: 2
# Processed by: cddbd v1.5.2PL0 Copyright (c) Steve Scherf et al.
# Submitted via: ExactAudioCopy v0.95a3
#
DISCID=750aa80a
DTITLE=Brian Knight with Jon McLoughlin, Steve Bray and Ray Bailey - G
DTITLE=ood Time Down The Road
DYEAR=1988
DGENRE=Blues
TTITLE0=High Heel Sneekers
TTITLE1=Hoochie Coochie Man
TTITLE2=99 Years
TTITLE3=My Babe
TTITLE4=Good Time Down The Road
TTITLE5=Meet Me At The Bottom
TTITLE6=Honey Bee
TTITLE7=She Caught The Katy
TTITLE8=Any Way You Want Me To Do
TTITLE9=Tired Broke and Busted
EXTD=
EXTT0=
EXTT1=
EXTT2=
EXTT3=
EXTT4=
EXTT5=
EXTT6=
EXTT7=
EXTT8=
EXTT9=
PLAYORDER=
